<svg width="351" height="168" viewBox="0 0 351 168" fill="none" xmlns="http://www.w3.org/2000/svg">
<path d="M99.5595 86.48C100.6 86.48 101.4 87 101.96 88.04C102.6 89 102.92 90.24 102.92 91.76C102.92 93.6 102.64 95.04 102.08 96.08C101.52 97.12 100.64 98.04 99.4395 98.84C94.7195 101.96 87.1995 107.08 76.8795 114.2C73.7595 130.76 69.7195 143.8 64.7595 153.32C59.7995 162.84 53.5195 167.6 45.9195 167.6C41.8395 167.6 38.5195 166.32 35.9595 163.76C33.3995 161.28 32.1195 158 32.1195 153.92C32.1195 150.16 32.9595 146.36 34.6395 142.52C36.3195 138.68 39.4395 134.24 43.9995 129.2C48.6395 124.16 55.1595 118.4 63.5595 111.92L63.9195 109.64C57.5995 112.28 51.3995 113.6 45.3195 113.6C36.3595 113.6 28.4795 111.88 21.6795 108.44C14.8795 104.92 9.59953 99.96 5.83953 93.56C2.07953 87.16 0.199532 79.72 0.199532 71.24C0.199532 59.4 2.43953 48.96 6.91953 39.92C11.3995 30.8 17.5595 23.76 25.3995 18.8C33.3195 13.76 42.1595 11.24 51.9195 11.24C61.2795 11.24 68.2795 13.44 72.9195 17.84C77.6395 22.16 79.9995 27.92 79.9995 35.12C79.9995 39.84 79.1195 43.64 77.3595 46.52C75.6795 49.32 73.2395 50.72 70.0395 50.72C67.8795 50.72 66.1195 50.2 64.7595 49.16C63.4795 48.12 62.8395 46.68 62.8395 44.84C62.8395 44.04 62.9995 42.68 63.3195 40.76C63.7995 38.52 64.0395 36.76 64.0395 35.48C64.0395 32.12 62.9995 29.52 60.9195 27.68C58.9195 25.84 55.5195 24.92 50.7195 24.92C44.8795 24.92 39.4395 26.6 34.3995 29.96C29.4395 33.32 25.4395 38.36 22.3995 45.08C19.3595 51.72 17.8395 59.72 17.8395 69.08C17.8395 78.68 20.4395 86.12 25.6395 91.4C30.9195 96.6 38.5195 99.2 48.4395 99.2C53.9595 99.2 59.7195 97.96 65.7195 95.48L67.3995 80.84H55.1595C52.9195 80.84 51.1995 80.32 49.9995 79.28C48.7995 78.16 48.1995 76.36 48.1995 73.88C48.1995 71.64 48.7995 69.88 49.9995 68.6C51.1995 67.32 52.7995 66.68 54.7995 66.68H77.2395C78.9995 66.68 80.4395 67.28 81.5595 68.48C82.7595 69.6 83.2395 71.24 82.9995 73.4C82.7595 75.96 81.9595 81.76 80.5995 90.8L79.2795 99.92C85.6795 95.12 91.5195 90.96 96.7995 87.44C97.8395 86.8 98.7595 86.48 99.5595 86.48ZM47.2395 155.96C49.3195 155.96 51.5995 153.6 54.0795 148.88C56.5595 144.16 58.8795 136.56 61.0395 126.08C54.9595 131.28 50.5595 135.96 47.8395 140.12C45.1995 144.36 43.8795 148.08 43.8795 151.28C43.8795 154.4 44.9995 155.96 47.2395 155.96ZM106.496 113.6C102.896 113.6 99.9361 111.96 97.6161 108.68C95.3761 105.32 94.2561 101.16 94.2561 96.2C94.2561 90.2 94.6561 84.72 95.4561 79.76C96.2561 74.72 97.5761 69.4 99.4161 63.8C100.216 61.4 101.336 59.68 102.776 58.64C104.216 57.6 106.496 57.08 109.616 57.08C111.376 57.08 112.576 57.36 113.216 57.92C113.936 58.48 114.296 59.32 114.296 60.44C114.296 61.08 113.856 63.24 112.976 66.92C112.176 69.88 111.536 72.56 111.056 74.96C109.456 83.36 108.656 88.96 108.656 91.76C108.656 93.44 108.856 94.64 109.256 95.36C109.656 96 110.296 96.32 111.176 96.32C112.376 96.32 113.856 95.12 115.616 92.72C117.456 90.32 119.376 86.68 121.376 81.8C123.456 76.92 125.456 70.92 127.376 63.8C128.016 61.4 128.976 59.68 130.256 58.64C131.616 57.6 133.616 57.08 136.256 57.08C138.096 57.08 139.376 57.32 140.096 57.8C140.816 58.2 141.176 59 141.176 60.2C141.176 62.2 140.176 67.68 138.176 76.64C135.936 86.88 134.816 93.2 134.816 95.6C134.816 97.12 135.136 98.32 135.776 99.2C136.416 100 137.256 100.4 138.296 100.4C139.896 100.4 141.776 99.44 143.936 97.52C146.176 95.52 149.136 92.32 152.816 87.92C153.776 86.8 154.856 86.24 156.056 86.24C157.096 86.24 157.896 86.72 158.456 87.68C159.096 88.64 159.416 89.96 159.416 91.64C159.416 94.84 158.656 97.32 157.136 99.08C153.696 103.32 149.976 106.8 145.976 109.52C142.056 112.24 137.576 113.6 132.536 113.6C128.696 113.6 125.856 112.12 124.016 109.16C122.256 106.2 121.376 102.04 121.376 96.68C120.016 102.12 117.976 106.32 115.256 109.28C112.536 112.16 109.616 113.6 106.496 113.6ZM164.446 113.6C159.486 113.6 155.526 111.8 152.566 108.2C149.606 104.6 148.126 99.88 148.126 94.04C148.126 87.64 149.606 81.6 152.566 75.92C155.526 70.16 159.446 65.56 164.326 62.12C169.286 58.6 174.526 56.84 180.046 56.84C181.806 56.84 182.966 57.2 183.526 57.92C184.166 58.56 184.686 59.76 185.086 61.52C186.766 61.2 188.526 61.04 190.366 61.04C194.286 61.04 196.246 62.44 196.246 65.24C196.246 66.92 195.646 70.92 194.446 77.24C192.606 86.44 191.686 92.84 191.686 96.44C191.686 97.64 191.966 98.6 192.526 99.32C193.166 100.04 193.966 100.4 194.926 100.4C196.446 100.4 198.286 99.44 200.446 97.52C202.606 95.52 205.526 92.32 209.206 87.92C210.166 86.8 211.246 86.24 212.446 86.24C213.486 86.24 214.286 86.72 214.846 87.68C215.486 88.64 215.806 89.96 215.806 91.64C215.806 94.84 215.046 97.32 213.526 99.08C210.246 103.16 206.766 106.6 203.086 109.4C199.406 112.2 195.846 113.6 192.406 113.6C189.766 113.6 187.326 112.72 185.086 110.96C182.926 109.12 181.286 106.64 180.166 103.52C176.006 110.24 170.766 113.6 164.446 113.6ZM168.766 101.48C170.526 101.48 172.206 100.44 173.806 98.36C175.406 96.28 176.566 93.52 177.286 90.08L181.726 68C178.366 68.08 175.246 69.36 172.366 71.84C169.566 74.24 167.326 77.44 165.646 81.44C163.966 85.44 163.126 89.68 163.126 94.16C163.126 96.64 163.606 98.48 164.566 99.68C165.606 100.88 167.006 101.48 168.766 101.48ZM214.573 113.6C211.533 113.6 209.373 112 208.093 108.8C206.893 105.6 206.293 100.48 206.293 93.44C206.293 83.04 207.773 73.16 210.733 63.8C211.453 61.48 212.613 59.8 214.213 58.76C215.893 57.64 218.213 57.08 221.173 57.08C222.773 57.08 223.893 57.28 224.533 57.68C225.173 58.08 225.493 58.84 225.493 59.96C225.493 61.24 224.893 64.12 223.693 68.6C222.893 71.8 222.253 74.6 221.773 77C221.293 79.4 220.893 82.36 220.573 85.88C223.213 79 226.173 73.4 229.453 69.08C232.733 64.76 235.933 61.68 239.053 59.84C242.253 58 245.173 57.08 247.813 57.08C253.013 57.08 255.613 59.68 255.613 64.88C255.613 65.92 255.253 68.44 254.533 72.44C253.893 75.64 253.573 77.64 253.573 78.44C253.573 81.24 254.573 82.64 256.573 82.64C258.813 82.64 261.693 80.88 265.213 77.36C266.253 76.32 267.333 75.8 268.453 75.8C269.493 75.8 270.293 76.28 270.853 77.24C271.493 78.12 271.813 79.32 271.813 80.84C271.813 83.8 271.013 86.12 269.413 87.8C267.173 90.12 264.533 92.12 261.493 93.8C258.533 95.4 255.373 96.2 252.013 96.2C247.773 96.2 244.533 95.12 242.293 92.96C240.133 90.8 239.053 87.88 239.053 84.2C239.053 83 239.173 81.8 239.413 80.6C239.573 79 239.653 77.92 239.653 77.36C239.653 76.08 239.213 75.44 238.333 75.44C237.133 75.44 235.533 76.8 233.533 79.52C231.613 82.16 229.693 85.68 227.773 90.08C225.853 94.48 224.293 99.12 223.093 104C222.213 107.76 221.173 110.32 219.973 111.68C218.853 112.96 217.053 113.6 214.573 113.6ZM328.822 86.24C329.862 86.24 330.662 86.72 331.222 87.68C331.862 88.64 332.182 89.96 332.182 91.64C332.182 94.84 331.422 97.32 329.902 99.08C326.622 103.08 323.022 106.52 319.102 109.4C315.182 112.2 311.302 113.6 307.462 113.6C301.382 113.6 296.742 110.04 293.542 102.92C290.182 107.16 287.222 110 284.662 111.44C282.182 112.88 279.262 113.6 275.902 113.6C271.022 113.6 266.982 111.8 263.782 108.2C260.662 104.52 259.102 99.76 259.102 93.92C259.102 87.52 260.462 81.6 263.182 76.16C265.902 70.64 269.622 66.16 274.342 62.72C279.142 59.2 284.502 57.12 290.422 56.48C291.942 40.96 294.822 27.72 299.062 16.76C303.382 5.71999 309.022 0.199993 315.982 0.199993C319.422 0.199993 322.262 1.75999 324.502 4.88C326.822 8 327.982 12.72 327.982 19.04C327.982 28 325.782 38.48 321.382 50.48C316.982 62.48 311.102 74.8 303.742 87.44C304.062 92.08 304.742 95.4 305.782 97.4C306.902 99.4 308.302 100.4 309.982 100.4C312.142 100.4 314.342 99.44 316.582 97.52C318.822 95.6 321.822 92.4 325.582 87.92C326.542 86.8 327.622 86.24 328.822 86.24ZM314.662 11.96C313.142 11.96 311.622 14.68 310.102 20.12C308.582 25.48 307.262 32.52 306.142 41.24C305.102 49.96 304.342 59.08 303.862 68.6C312.822 49.08 317.302 33.4 317.302 21.56C317.302 18.52 317.022 16.16 316.462 14.48C315.982 12.8 315.382 11.96 314.662 11.96ZM280.102 101.48C281.622 101.48 283.142 100.88 284.662 99.68C286.182 98.4 288.102 96.08 290.422 92.72C289.622 88.4 289.222 83.56 289.222 78.2C289.222 76.28 289.302 73.16 289.462 68.84C285.062 70.2 281.382 73.16 278.422 77.72C275.542 82.2 274.102 87.2 274.102 92.72C274.102 98.56 276.102 101.48 280.102 101.48ZM338.98 49.16C335.62 49.16 333.1 48.4 331.42 46.88C329.74 45.28 328.9 43.08 328.9 40.28C328.9 37.48 329.98 35.16 332.14 33.32C334.38 31.4 337.14 30.44 340.42 30.44C343.38 30.44 345.78 31.16 347.62 32.6C349.46 34.04 350.38 36.08 350.38 38.72C350.38 41.92 349.34 44.48 347.26 46.4C345.18 48.24 342.42 49.16 338.98 49.16ZM327.46 113.6C324.9 113.6 323.14 113.08 322.18 112.04C321.22 111 320.74 109.36 320.74 107.12C320.74 106.48 320.82 105.36 320.98 103.76C322.26 89.12 324.38 75.8 327.34 63.8C327.98 61.32 329.02 59.6 330.46 58.64C331.98 57.6 334.38 57.08 337.66 57.08C341.1 57.08 342.82 58.48 342.82 61.28C342.82 61.68 342.74 62.44 342.58 63.56C338.98 80.68 336.82 95.04 336.1 106.64C335.94 109.2 335.18 111 333.82 112.04C332.46 113.08 330.34 113.6 327.46 113.6Z" fill="#73B542"/>
</svg>
