<svg width="128" height="128" viewBox="0 0 128 128" fill="none" xmlns="http://www.w3.org/2000/svg">
<circle cx="64" cy="64" r="64" fill="#2C2C2C"/>
<mask id="mask0" mask-type="alpha" maskUnits="userSpaceOnUse" x="19" y="34" width="90" height="60">
<path d="M108.026 72.6308L98.6049 81.7385L68.5791 56.0066C70.3709 61.745 70.062 66.8536 69.3781 72.4438C68.6933 78.0338 66.6114 82.7034 63.1315 86.4528C58.5939 91.3417 52.917 93.6095 46.0996 93.2563C39.2823 92.9029 33.4388 90.4666 28.5703 85.9475C22.8043 80.5965 19.9391 73.7083 19.9748 65.2826C20.0093 56.857 22.8242 49.6298 28.4195 43.601C32.3727 39.3418 36.815 37.5319 40.4688 36.2047C45.664 34.317 53.2804 34.5323 57.2231 35.1384C61.1659 35.7447 67.9665 38.3595 72.9261 42.9618L90.4753 57.7963L108.026 72.6308ZM61.8288 51.4431C58.219 48.2823 54.0082 47.177 50.166 47.5231C47.1667 47.7933 42.9119 48.8521 39.0529 53.5509C35.195 58.2496 34.796 61.9439 34.753 66.0477C34.7112 70.1515 36.8401 74.2733 38.5398 75.9386C40.2384 77.6041 43.7549 79.864 46.7918 79.7496C50.234 79.6198 54.2846 78.3223 57.2231 75.1554C61.7209 70.3097 62.1733 62.0357 61.8288 51.4431Z" fill="#00B127"/>
<path d="M108.026 72.6308L98.6049 81.7385L68.5791 56.0066C70.3709 61.745 70.062 66.8536 69.3781 72.4438C68.6933 78.0338 66.6114 82.7034 63.1315 86.4528C58.5939 91.3417 52.917 93.6095 46.0996 93.2563C39.2823 92.9029 33.4388 90.4666 28.5703 85.9475C22.8043 80.5965 19.9391 73.7083 19.9748 65.2826C20.0093 56.857 22.8242 49.6298 28.4195 43.601C32.3727 39.3418 36.815 37.5319 40.4688 36.2047C45.664 34.317 53.2804 34.5323 57.2231 35.1384C61.1659 35.7447 67.9665 38.3595 72.9261 42.9618L90.4753 57.7963L108.026 72.6308ZM61.8288 51.4431C58.219 48.2823 54.0082 47.177 50.166 47.5231C47.1667 47.7933 42.9119 48.8521 39.0529 53.5509C35.195 58.2496 34.796 61.9439 34.753 66.0477C34.7112 70.1515 36.8401 74.2733 38.5398 75.9386C40.2384 77.6041 43.7549 79.864 46.7918 79.7496C50.234 79.6198 54.2846 78.3223 57.2231 75.1554C61.7209 70.3097 62.1733 62.0357 61.8288 51.4431Z" fill="url(#paint0_linear)"/>
</mask>
<g mask="url(#mask0)">
<path d="M25.5769 113.294C48.381 131.348 81.3199 127.728 99.1481 105.21C116.976 82.6909 112.943 49.8001 90.1384 31.7461C67.3344 13.6921 34.3954 17.3115 16.5673 39.8304C-1.26091 62.3492 2.77286 95.2399 25.5769 113.294Z" fill="white"/>
<path d="M63.5939 75.5856C81.3407 80.5208 98.5318 74.4367 101.991 61.9964C105.451 49.556 93.8687 35.4703 76.122 30.5352C58.3752 25.6 41.1841 31.6841 37.7245 44.1244C34.265 56.5648 45.8471 70.6504 63.5939 75.5856Z" fill="white"/>
</g>
<defs>
<linearGradient id="paint0_linear" x1="21.554" y1="74.5732" x2="57.0755" y2="65.2838" gradientUnits="userSpaceOnUse">
<stop stop-color="#008DD2"/>
<stop offset="1" stop-color="white" stop-opacity="0"/>
</linearGradient>
</defs>
</svg>
